# MagicaVoxel @ Ephtracy

# group
o 

# material
mtllib chick.mtl
usemtl palette

# normals
vn -1 0 0
vn 1 0 0
vn 0 0 1
vn 0 0 -1
vn 0 -1 0
vn 0 1 0

# texcoords
vt 0.0175781 0.5
vt 0.0722656 0.5
vt 0.0917969 0.5
vt 0.958984 0.5
vt 0.994141 0.5

# verts
v 1.6 2.2 -1.9
v 1.6 2.2 -2.1
v 1.6 2.4 -1.9
v 1.6 2.4 -2.1
v 1.7 2.5 -1.5
v 1.7 2.5 -2.5
v 1.7 2.7 -1.5
v 1.7 2.7 -1.6
v 1.7 2.8 -1.5
v 1.7 2.8 -1.6
v 1.7 3.4 -1.5
v 1.7 3.4 -2.5
v 1.9 2 -1.5
v 1.9 2 -1.7
v 1.9 2 -2.3
v 1.9 2.2 -1.5
v 1.9 2.2 -1.7
v 1.9 2.2 -1.9
v 1.9 2.2 -2.1
v 1.9 2.4 -1.9
v 1.9 2.4 -2.1
v 1.9 2.5 -1.7
v 1.9 2.5 -2.3
v 2.1 2.6 -1.4
v 2.1 2.6 -1.5
v 2.1 2.7 -1.3
v 2.1 2.7 -1.4
v 2.1 2.8 -1.3
v 2.1 2.8 -1.5
v 2.2 2 -2.3
v 2.2 2 -2.5
v 2.2 2.1 -2.4
v 2.2 2.1 -2.5
v 2.2 2.2 -2.3
v 2.2 2.2 -2.4
v 2.4 2 -1.5
v 2.4 2 -1.7
v 2.4 2.2 -1.5
v 2.4 2.2 -1.7
v 2.2 2 -1.5
v 2.2 2 -1.7
v 2.2 2.2 -1.5
v 2.2 2.2 -1.7
v 2.4 2 -2.3
v 2.4 2 -2.5
v 2.4 2.1 -2.4
v 2.4 2.1 -2.5
v 2.4 2.2 -2.3
v 2.4 2.2 -2.4
v 2.5 2.6 -1.4
v 2.5 2.6 -1.5
v 2.5 2.7 -1.3
v 2.5 2.7 -1.4
v 2.5 2.8 -1.3
v 2.5 2.8 -1.5
v 2.7 2 -1.5
v 2.7 2 -1.7
v 2.7 2 -2.3
v 2.7 2.2 -1.5
v 2.7 2.2 -1.7
v 2.7 2.2 -1.9
v 2.7 2.2 -2.1
v 2.7 2.4 -1.9
v 2.7 2.4 -2.1
v 2.7 2.5 -1.7
v 2.7 2.5 -2.3
v 2.9 2.5 -1.5
v 2.9 2.5 -2.5
v 2.9 2.7 -1.5
v 2.9 2.7 -1.6
v 2.9 2.8 -1.5
v 2.9 2.8 -1.6
v 2.9 3.4 -1.5
v 2.9 3.4 -2.5
v 3 2.2 -1.9
v 3 2.2 -2.1
v 3 2.4 -1.9
v 3 2.4 -2.1
v 2.1 2.7 -1.3
v 2.1 2.8 -1.3
v 2.5 2.7 -1.3
v 2.5 2.8 -1.3
v 2.1 2.6 -1.4
v 2.1 2.7 -1.4
v 2.5 2.6 -1.4
v 2.5 2.7 -1.4
v 1.7 2.5 -1.5
v 1.7 2.7 -1.5
v 1.7 2.8 -1.5
v 1.7 3.4 -1.5
v 1.9 2 -1.5
v 1.9 2.2 -1.5
v 1.9 2.7 -1.5
v 1.9 2.8 -1.5
v 1.9 2.9 -1.5
v 1.9 3 -1.5
v 1.9 3.1 -1.5
v 2 3 -1.5
v 2 3.1 -1.5
v 2.1 2.6 -1.5
v 2.1 2.8 -1.5
v 2.1 2.9 -1.5
v 2.1 3.1 -1.5
v 2.2 2 -1.5
v 2.2 2.2 -1.5
v 2.4 2 -1.5
v 2.4 2.2 -1.5
v 2.5 2.6 -1.5
v 2.5 2.8 -1.5
v 2.5 2.9 -1.5
v 2.5 3.1 -1.5
v 2.6 3 -1.5
v 2.6 3.1 -1.5
v 2.7 2 -1.5
v 2.7 2.2 -1.5
v 2.7 2.7 -1.5
v 2.7 2.8 -1.5
v 2.7 2.9 -1.5
v 2.7 3 -1.5
v 2.7 3.1 -1.5
v 2.9 2.5 -1.5
v 2.9 2.7 -1.5
v 2.9 2.8 -1.5
v 2.9 3.4 -1.5
v 1.9 2.2 -1.7
v 1.9 2.5 -1.7
v 2.2 2 -1.7
v 2.2 2.2 -1.7
v 2.4 2 -1.7
v 2.4 2.2 -1.7
v 2.7 2.2 -1.7
v 2.7 2.5 -1.7
v 1.6 2.2 -1.9
v 1.6 2.4 -1.9
v 1.9 2.2 -1.9
v 1.9 2.4 -1.9
v 2.7 2.2 -1.9
v 2.7 2.4 -1.9
v 3 2.2 -1.9
v 3 2.4 -1.9
v 1.6 2.2 -2.1
v 1.6 2.4 -2.1
v 1.9 2.2 -2.1
v 1.9 2.4 -2.1
v 2.7 2.2 -2.1
v 2.7 2.4 -2.1
v 3 2.2 -2.1
v 3 2.4 -2.1
v 1.9 2 -2.3
v 1.9 2.5 -2.3
v 2.2 2 -2.3
v 2.2 2.2 -2.3
v 2.4 2 -2.3
v 2.4 2.2 -2.3
v 2.7 2 -2.3
v 2.7 2.5 -2.3
v 2.2 2.1 -2.4
v 2.2 2.2 -2.4
v 2.4 2.1 -2.4
v 2.4 2.2 -2.4
v 1.7 2.5 -2.5
v 1.7 3.4 -2.5
v 2.2 2 -2.5
v 2.2 2.1 -2.5
v 2.4 2 -2.5
v 2.4 2.1 -2.5
v 2.9 2.5 -2.5
v 2.9 3.4 -2.5
v 1.9 2 -1.5
v 2.2 2 -1.5
v 2.4 2 -1.5
v 2.7 2 -1.5
v 1.9 2 -1.7
v 2.2 2 -1.7
v 2.4 2 -1.7
v 2.7 2 -1.7
v 1.9 2 -2.3
v 2.2 2 -2.3
v 2.4 2 -2.3
v 2.7 2 -2.3
v 2.2 2 -2.5
v 2.4 2 -2.5
v 1.6 2.2 -1.9
v 1.9 2.2 -1.9
v 2.7 2.2 -1.9
v 3 2.2 -1.9
v 1.6 2.2 -2.1
v 1.9 2.2 -2.1
v 2.7 2.2 -2.1
v 3 2.2 -2.1
v 1.7 2.5 -1.5
v 2.9 2.5 -1.5
v 1.9 2.5 -1.7
v 2.7 2.5 -1.7
v 1.9 2.5 -2.3
v 2.7 2.5 -2.3
v 1.7 2.5 -2.5
v 2.9 2.5 -2.5
v 2.1 2.6 -1.4
v 2.5 2.6 -1.4
v 2.1 2.6 -1.5
v 2.5 2.6 -1.5
v 2.1 2.7 -1.3
v 2.5 2.7 -1.3
v 2.1 2.7 -1.4
v 2.5 2.7 -1.4
v 2.2 2.1 -2.4
v 2.4 2.1 -2.4
v 2.2 2.1 -2.5
v 2.4 2.1 -2.5
v 1.9 2.2 -1.5
v 2.2 2.2 -1.5
v 2.4 2.2 -1.5
v 2.7 2.2 -1.5
v 1.9 2.2 -1.7
v 2.2 2.2 -1.7
v 2.4 2.2 -1.7
v 2.7 2.2 -1.7
v 2.2 2.2 -2.3
v 2.4 2.2 -2.3
v 2.2 2.2 -2.4
v 2.4 2.2 -2.4
v 1.6 2.4 -1.9
v 1.9 2.4 -1.9
v 2.7 2.4 -1.9
v 3 2.4 -1.9
v 1.6 2.4 -2.1
v 1.9 2.4 -2.1
v 2.7 2.4 -2.1
v 3 2.4 -2.1
v 2.1 2.8 -1.3
v 2.5 2.8 -1.3
v 2.1 2.8 -1.5
v 2.5 2.8 -1.5
v 1.7 3.4 -1.5
v 2.9 3.4 -1.5
v 1.7 3.4 -2.5
v 2.9 3.4 -2.5

# faces
f 3/1/1 2/1/1 1/1/1
f 4/1/1 2/1/1 3/1/1
f 7/1/1 6/1/1 5/1/1
f 8/1/1 6/1/1 7/1/1
f 9/2/1 8/2/1 7/2/1
f 10/1/1 6/1/1 8/1/1
f 10/2/1 8/2/1 9/2/1
f 11/1/1 10/1/1 9/1/1
f 12/1/1 6/1/1 10/1/1
f 12/1/1 10/1/1 11/1/1
f 16/3/1 14/3/1 13/3/1
f 17/1/1 15/1/1 14/1/1
f 17/3/1 14/3/1 16/3/1
f 18/1/1 15/1/1 17/1/1
f 19/1/1 15/1/1 18/1/1
f 20/1/1 18/1/1 17/1/1
f 21/1/1 15/1/1 19/1/1
f 22/1/1 20/1/1 17/1/1
f 22/1/1 21/1/1 20/1/1
f 23/1/1 15/1/1 21/1/1
f 23/1/1 21/1/1 22/1/1
f 27/3/1 25/3/1 24/3/1
f 28/3/1 27/3/1 26/3/1
f 29/3/1 25/3/1 27/3/1
f 29/3/1 27/3/1 28/3/1
f 32/1/1 31/1/1 30/1/1
f 33/1/1 31/1/1 32/1/1
f 34/1/1 32/1/1 30/1/1
f 35/1/1 32/1/1 34/1/1
f 38/3/1 37/3/1 36/3/1
f 39/3/1 37/3/1 38/3/1
f 40/3/2 41/3/2 42/3/2
f 42/3/2 41/3/2 43/3/2
f 44/1/2 45/1/2 46/1/2
f 46/1/2 45/1/2 47/1/2
f 44/1/2 46/1/2 48/1/2
f 48/1/2 46/1/2 49/1/2
f 50/3/2 51/3/2 53/3/2
f 52/3/2 53/3/2 54/3/2
f 53/3/2 51/3/2 55/3/2
f 54/3/2 53/3/2 55/3/2
f 56/3/2 57/3/2 59/3/2
f 57/1/2 58/1/2 60/1/2
f 59/3/2 57/3/2 60/3/2
f 60/1/2 58/1/2 61/1/2
f 61/1/2 58/1/2 62/1/2
f 60/1/2 61/1/2 63/1/2
f 62/1/2 58/1/2 64/1/2
f 60/1/2 63/1/2 65/1/2
f 63/1/2 64/1/2 65/1/2
f 64/1/2 58/1/2 66/1/2
f 65/1/2 64/1/2 66/1/2
f 67/1/2 68/1/2 69/1/2
f 69/1/2 68/1/2 70/1/2
f 69/2/2 70/2/2 71/2/2
f 70/1/2 68/1/2 72/1/2
f 71/2/2 70/2/2 72/2/2
f 71/1/2 72/1/2 73/1/2
f 72/1/2 68/1/2 74/1/2
f 73/1/2 72/1/2 74/1/2
f 75/1/2 76/1/2 77/1/2
f 77/1/2 76/1/2 78/1/2
f 81/3/3 80/3/3 79/3/3
f 82/3/3 80/3/3 81/3/3
f 85/3/3 84/3/3 83/3/3
f 86/3/3 84/3/3 85/3/3
f 93/1/3 88/1/3 87/1/3
f 93/2/3 89/2/3 88/2/3
f 94/1/3 90/1/3 89/1/3
f 94/2/3 89/2/3 93/2/3
f 95/1/3 90/1/3 94/1/3
f 96/1/3 90/1/3 95/1/3
f 97/1/3 90/1/3 96/1/3
f 98/5/3 96/5/3 95/5/3
f 98/4/3 97/4/3 96/4/3
f 99/1/3 90/1/3 97/1/3
f 99/4/3 97/4/3 98/4/3
f 100/1/3 93/1/3 87/1/3
f 100/1/3 94/1/3 93/1/3
f 100/1/3 95/1/3 94/1/3
f 101/1/3 95/1/3 100/1/3
f 102/5/3 99/5/3 98/5/3
f 102/1/3 95/1/3 101/1/3
f 102/5/3 98/5/3 95/5/3
f 103/1/3 90/1/3 99/1/3
f 103/5/3 99/5/3 102/5/3
f 104/3/3 92/3/3 91/3/3
f 105/3/3 92/3/3 104/3/3
f 108/1/3 100/1/3 87/1/3
f 109/1/3 102/1/3 101/1/3
f 109/1/3 103/1/3 102/1/3
f 110/1/3 103/1/3 109/1/3
f 111/1/3 90/1/3 103/1/3
f 111/1/3 103/1/3 110/1/3
f 112/5/3 111/5/3 110/5/3
f 113/1/3 90/1/3 111/1/3
f 113/5/3 111/5/3 112/5/3
f 114/3/3 107/3/3 106/3/3
f 115/3/3 107/3/3 114/3/3
f 116/1/3 110/1/3 109/1/3
f 116/1/3 109/1/3 108/1/3
f 117/1/3 110/1/3 116/1/3
f 118/5/3 112/5/3 110/5/3
f 118/1/3 110/1/3 117/1/3
f 119/4/3 113/4/3 112/4/3
f 119/5/3 112/5/3 118/5/3
f 120/1/3 90/1/3 113/1/3
f 120/4/3 113/4/3 119/4/3
f 121/1/3 108/1/3 87/1/3
f 121/1/3 116/1/3 108/1/3
f 122/2/3 117/2/3 116/2/3
f 122/1/3 116/1/3 121/1/3
f 123/1/3 120/1/3 119/1/3
f 123/2/3 117/2/3 122/2/3
f 123/1/3 119/1/3 118/1/3
f 123/1/3 118/1/3 117/1/3
f 124/1/3 90/1/3 120/1/3
f 124/1/3 120/1/3 123/1/3
f 128/1/3 126/1/3 125/1/3
f 129/1/3 128/1/3 127/1/3
f 130/1/3 126/1/3 128/1/3
f 130/1/3 128/1/3 129/1/3
f 131/1/3 126/1/3 130/1/3
f 132/1/3 126/1/3 131/1/3
f 135/1/3 134/1/3 133/1/3
f 136/1/3 134/1/3 135/1/3
f 139/1/3 138/1/3 137/1/3
f 140/1/3 138/1/3 139/1/3
f 141/1/4 142/1/4 143/1/4
f 143/1/4 142/1/4 144/1/4
f 145/1/4 146/1/4 147/1/4
f 147/1/4 146/1/4 148/1/4
f 149/1/4 150/1/4 151/1/4
f 151/1/4 150/1/4 152/1/4
f 152/1/4 150/1/4 154/1/4
f 153/1/4 154/1/4 155/1/4
f 154/1/4 150/1/4 156/1/4
f 155/1/4 154/1/4 156/1/4
f 157/1/4 158/1/4 159/1/4
f 159/1/4 158/1/4 160/1/4
f 163/1/4 164/1/4 165/1/4
f 165/1/4 164/1/4 166/1/4
f 161/1/4 162/1/4 167/1/4
f 167/1/4 162/1/4 168/1/4
f 173/3/5 170/3/5 169/3/5
f 174/3/5 170/3/5 173/3/5
f 175/3/5 172/3/5 171/3/5
f 176/3/5 172/3/5 175/3/5
f 177/1/5 174/1/5 173/1/5
f 177/1/5 175/1/5 174/1/5
f 177/1/5 176/1/5 175/1/5
f 178/1/5 176/1/5 177/1/5
f 179/1/5 176/1/5 178/1/5
f 180/1/5 176/1/5 179/1/5
f 181/1/5 179/1/5 178/1/5
f 182/1/5 179/1/5 181/1/5
f 187/1/5 184/1/5 183/1/5
f 188/1/5 184/1/5 187/1/5
f 189/1/5 186/1/5 185/1/5
f 190/1/5 186/1/5 189/1/5
f 193/1/5 192/1/5 191/1/5
f 194/1/5 192/1/5 193/1/5
f 195/1/5 193/1/5 191/1/5
f 196/1/5 192/1/5 194/1/5
f 197/1/5 195/1/5 191/1/5
f 197/1/5 196/1/5 195/1/5
f 198/1/5 192/1/5 196/1/5
f 198/1/5 196/1/5 197/1/5
f 201/3/5 200/3/5 199/3/5
f 202/3/5 200/3/5 201/3/5
f 205/3/5 204/3/5 203/3/5
f 206/3/5 204/3/5 205/3/5
f 207/1/6 208/1/6 209/1/6
f 209/1/6 208/1/6 210/1/6
f 211/3/6 212/3/6 215/3/6
f 215/3/6 212/3/6 216/3/6
f 213/3/6 214/3/6 217/3/6
f 217/3/6 214/3/6 218/3/6
f 219/1/6 220/1/6 221/1/6
f 221/1/6 220/1/6 222/1/6
f 223/1/6 224/1/6 227/1/6
f 227/1/6 224/1/6 228/1/6
f 225/1/6 226/1/6 229/1/6
f 229/1/6 226/1/6 230/1/6
f 231/3/6 232/3/6 233/3/6
f 233/3/6 232/3/6 234/3/6
f 235/1/6 236/1/6 237/1/6
f 237/1/6 236/1/6 238/1/6
