# MagicaVoxel @ Ephtracy

# group
o 

# material
mtllib smartphone.mtl
usemtl palette

# normals
vn -1 0 0
vn 1 0 0
vn 0 0 1
vn 0 0 -1
vn 0 -1 0
vn 0 1 0

# texcoords
vt 0.955078 0.5
vt 0.958984 0.5
vt 0.970703 0.5
vt 0.974609 0.5
vt 0.982422 0.5
vt 0.994141 0.5

# verts
v 0 6.3 -0.2
v 0 6.3 -0.3
v 0 6.7 -0.2
v 0 6.7 -0.3
v 0 6.8 -0.2
v 0 6.8 -0.3
v 0 7.2 -0.2
v 0 7.2 -0.3
v 0 7.4 -0.1
v 0 7.4 -0.2
v 0 7.8 -0.1
v 0 7.8 -0.2
v 0.1 2.1 0
v 0.1 2.1 -0.1
v 0.1 2.1 -0.3
v 0.1 2.1 -0.4
v 0.1 6.3 -0.2
v 0.1 6.3 -0.3
v 0.1 6.7 -0.2
v 0.1 6.7 -0.3
v 0.1 6.8 -0.2
v 0.1 6.8 -0.3
v 0.1 7.2 -0.2
v 0.1 7.2 -0.3
v 0.1 7.4 -0.1
v 0.1 7.4 -0.2
v 0.1 7.4 -0.3
v 0.1 7.8 -0.1
v 0.1 7.8 -0.2
v 0.1 7.8 -0.3
v 0.1 8.3 0
v 0.1 8.3 -0.1
v 0.1 8.3 -0.3
v 0.1 8.3 -0.4
v 0.2 2 0
v 0.2 2 -0.1
v 0.2 2 -0.3
v 0.2 2 -0.4
v 0.2 2.1 0
v 0.2 2.1 -0.1
v 0.2 2.1 -0.3
v 0.2 2.1 -0.4
v 0.2 7.4 -0.2
v 0.2 7.4 -0.3
v 0.2 7.8 -0.2
v 0.2 7.8 -0.3
v 0.2 8.3 0
v 0.2 8.3 -0.1
v 0.2 8.3 -0.3
v 0.2 8.3 -0.4
v 0.2 8.4 0
v 0.2 8.4 -0.1
v 0.2 8.4 -0.3
v 0.2 8.4 -0.4
v 2.2 7.9 -0.4
v 2.2 7.9 -0.5
v 2.2 8.2 -0.4
v 2.2 8.2 -0.5
v 2.3 7.8 -0.4
v 2.3 7.8 -0.5
v 2.3 7.9 -0.4
v 2.3 7.9 -0.5
v 2.3 8.2 -0.4
v 2.3 8.2 -0.5
v 2.3 8.3 -0.4
v 2.3 8.3 -0.5
v 3.1 7.8 -0.4
v 3.1 7.8 -0.5
v 3.1 7.9 -0.4
v 3.1 7.9 -0.5
v 3.1 8.2 -0.4
v 3.1 8.2 -0.5
v 3.1 8.3 -0.4
v 3.1 8.3 -0.5
v 3.2 7.9 -0.4
v 3.2 7.9 -0.5
v 3.2 8.2 -0.4
v 3.2 8.2 -0.5
v 3.3 2 0
v 3.3 2 -0.1
v 3.3 2 -0.3
v 3.3 2 -0.4
v 3.3 2.1 0
v 3.3 2.1 -0.1
v 3.3 2.1 -0.3
v 3.3 2.1 -0.4
v 3.3 8.3 0
v 3.3 8.3 -0.1
v 3.3 8.3 -0.3
v 3.3 8.3 -0.4
v 3.3 8.4 0
v 3.3 8.4 -0.1
v 3.3 8.4 -0.3
v 3.3 8.4 -0.4
v 3.4 2.1 0
v 3.4 2.1 -0.1
v 3.4 2.1 -0.3
v 3.4 2.1 -0.4
v 3.4 7.2 -0.2
v 3.4 7.2 -0.3
v 3.4 7.6 -0.2
v 3.4 7.6 -0.3
v 3.4 8.3 0
v 3.4 8.3 -0.1
v 3.4 8.3 -0.3
v 3.4 8.3 -0.4
v 3.5 7.2 -0.2
v 3.5 7.2 -0.3
v 3.5 7.6 -0.2
v 3.5 7.6 -0.3
v 0.1 2.1 0
v 0.1 8.3 0
v 0.2 2 0
v 0.2 2.1 0
v 0.2 8.3 0
v 0.2 8.4 0
v 0.3 2.7 0
v 0.3 7.8 0
v 1.2 8 0
v 1.2 8.1 0
v 1.3 8 0
v 1.3 8.1 0
v 1.4 8 0
v 1.4 8.1 0
v 1.5 2.2 0
v 1.5 2.5 0
v 1.6 2.1 0
v 1.6 2.2 0
v 1.6 2.5 0
v 1.6 2.6 0
v 1.7 8.2 0
v 1.7 8.3 0
v 1.8 8.2 0
v 1.8 8.3 0
v 1.9 2.1 0
v 1.9 2.2 0
v 1.9 2.5 0
v 1.9 2.6 0
v 2 2.2 0
v 2 2.5 0
v 2.1 8 0
v 2.1 8.1 0
v 3.2 2.7 0
v 3.2 7.8 0
v 3.3 2 0
v 3.3 2.1 0
v 3.3 8.3 0
v 3.3 8.4 0
v 3.4 2.1 0
v 3.4 8.3 0
v 0 7.4 -0.1
v 0 7.8 -0.1
v 0.1 7.4 -0.1
v 0.1 7.8 -0.1
v 0 6.3 -0.2
v 0 6.7 -0.2
v 0 6.8 -0.2
v 0 7.2 -0.2
v 0.1 6.3 -0.2
v 0.1 6.7 -0.2
v 0.1 6.8 -0.2
v 0.1 7.2 -0.2
v 3.4 7.2 -0.2
v 3.4 7.6 -0.2
v 3.5 7.2 -0.2
v 3.5 7.6 -0.2
v 0.1 7.4 -0.3
v 0.1 7.8 -0.3
v 0.2 7.4 -0.3
v 0.2 7.8 -0.3
v 0 7.4 -0.2
v 0 7.8 -0.2
v 0.1 7.4 -0.2
v 0.1 7.8 -0.2
v 0.2 7.4 -0.2
v 0.2 7.8 -0.2
v 0 6.3 -0.3
v 0 6.7 -0.3
v 0 6.8 -0.3
v 0 7.2 -0.3
v 0.1 6.3 -0.3
v 0.1 6.7 -0.3
v 0.1 6.8 -0.3
v 0.1 7.2 -0.3
v 3.4 7.2 -0.3
v 3.4 7.6 -0.3
v 3.5 7.2 -0.3
v 3.5 7.6 -0.3
v 0.1 2.1 -0.4
v 0.1 8.3 -0.4
v 0.2 2 -0.4
v 0.2 2.1 -0.4
v 0.2 8.3 -0.4
v 0.2 8.4 -0.4
v 1.3 5.7 -0.4
v 1.3 5.8 -0.4
v 1.4 5.6 -0.4
v 1.4 5.7 -0.4
v 1.4 6.1 -0.4
v 1.4 6.2 -0.4
v 1.5 5.5 -0.4
v 1.5 5.6 -0.4
v 1.5 6 -0.4
v 1.5 6.1 -0.4
v 1.5 6.2 -0.4
v 1.5 6.3 -0.4
v 1.5 6.7 -0.4
v 1.5 6.8 -0.4
v 1.6 5.4 -0.4
v 1.6 5.5 -0.4
v 1.6 5.8 -0.4
v 1.6 6 -0.4
v 1.6 6.3 -0.4
v 1.6 6.4 -0.4
v 1.6 6.5 -0.4
v 1.6 6.7 -0.4
v 1.7 6.7 -0.4
v 1.7 6.8 -0.4
v 1.8 5.4 -0.4
v 1.8 5.5 -0.4
v 1.8 6.3 -0.4
v 1.8 6.4 -0.4
v 1.8 6.5 -0.4
v 1.8 6.6 -0.4
v 1.8 6.7 -0.4
v 1.9 5.4 -0.4
v 1.9 5.5 -0.4
v 1.9 6.3 -0.4
v 1.9 6.4 -0.4
v 1.9 6.6 -0.4
v 1.9 8 -0.4
v 1.9 8.1 -0.4
v 2 8 -0.4
v 2 8.1 -0.4
v 2.1 5.4 -0.4
v 2.1 5.5 -0.4
v 2.1 6.3 -0.4
v 2.1 6.4 -0.4
v 2.2 5.5 -0.4
v 2.2 5.6 -0.4
v 2.2 6.2 -0.4
v 2.2 6.3 -0.4
v 2.2 7.9 -0.4
v 2.2 8.2 -0.4
v 2.3 5.6 -0.4
v 2.3 5.7 -0.4
v 2.3 6.1 -0.4
v 2.3 6.2 -0.4
v 2.3 7.8 -0.4
v 2.3 7.9 -0.4
v 2.3 8.2 -0.4
v 2.3 8.3 -0.4
v 2.4 5.7 -0.4
v 2.4 6.1 -0.4
v 3.1 7.8 -0.4
v 3.1 7.9 -0.4
v 3.1 8.2 -0.4
v 3.1 8.3 -0.4
v 3.2 7.9 -0.4
v 3.2 8.2 -0.4
v 3.3 2 -0.4
v 3.3 2.1 -0.4
v 3.3 8.3 -0.4
v 3.3 8.4 -0.4
v 3.4 2.1 -0.4
v 3.4 8.3 -0.4
v 2.2 7.9 -0.5
v 2.2 8.2 -0.5
v 2.3 7.8 -0.5
v 2.3 7.9 -0.5
v 2.3 8.2 -0.5
v 2.3 8.3 -0.5
v 3.1 7.8 -0.5
v 3.1 7.9 -0.5
v 3.1 8.2 -0.5
v 3.1 8.3 -0.5
v 3.2 7.9 -0.5
v 3.2 8.2 -0.5
v 0.2 2 0
v 3.3 2 0
v 0.2 2 -0.1
v 3.3 2 -0.1
v 0.2 2 -0.3
v 3.3 2 -0.3
v 0.2 2 -0.4
v 3.3 2 -0.4
v 0.1 2.1 0
v 0.2 2.1 0
v 3.3 2.1 0
v 3.4 2.1 0
v 0.1 2.1 -0.1
v 0.2 2.1 -0.1
v 3.3 2.1 -0.1
v 3.4 2.1 -0.1
v 0.1 2.1 -0.3
v 0.2 2.1 -0.3
v 3.3 2.1 -0.3
v 3.4 2.1 -0.3
v 0.1 2.1 -0.4
v 0.2 2.1 -0.4
v 3.3 2.1 -0.4
v 3.4 2.1 -0.4
v 0 6.3 -0.2
v 0.1 6.3 -0.2
v 0 6.3 -0.3
v 0.1 6.3 -0.3
v 0 6.8 -0.2
v 0.1 6.8 -0.2
v 0 6.8 -0.3
v 0.1 6.8 -0.3
v 3.4 7.2 -0.2
v 3.5 7.2 -0.2
v 3.4 7.2 -0.3
v 3.5 7.2 -0.3
v 0 7.4 -0.1
v 0.1 7.4 -0.1
v 0 7.4 -0.2
v 0.1 7.4 -0.2
v 0.1 7.8 -0.2
v 0.2 7.8 -0.2
v 0.1 7.8 -0.3
v 0.2 7.8 -0.3
v 2.3 7.8 -0.4
v 3.1 7.8 -0.4
v 2.3 7.8 -0.5
v 3.1 7.8 -0.5
v 2.2 7.9 -0.4
v 2.3 7.9 -0.4
v 3.1 7.9 -0.4
v 3.2 7.9 -0.4
v 2.2 7.9 -0.5
v 2.3 7.9 -0.5
v 3.1 7.9 -0.5
v 3.2 7.9 -0.5
v 0 6.7 -0.2
v 0.1 6.7 -0.2
v 0 6.7 -0.3
v 0.1 6.7 -0.3
v 0 7.2 -0.2
v 0.1 7.2 -0.2
v 0 7.2 -0.3
v 0.1 7.2 -0.3
v 0.1 7.4 -0.2
v 0.2 7.4 -0.2
v 0.1 7.4 -0.3
v 0.2 7.4 -0.3
v 3.4 7.6 -0.2
v 3.5 7.6 -0.2
v 3.4 7.6 -0.3
v 3.5 7.6 -0.3
v 0 7.8 -0.1
v 0.1 7.8 -0.1
v 0 7.8 -0.2
v 0.1 7.8 -0.2
v 2.2 8.2 -0.4
v 2.3 8.2 -0.4
v 3.1 8.2 -0.4
v 3.2 8.2 -0.4
v 2.2 8.2 -0.5
v 2.3 8.2 -0.5
v 3.1 8.2 -0.5
v 3.2 8.2 -0.5
v 0.1 8.3 0
v 0.2 8.3 0
v 3.3 8.3 0
v 3.4 8.3 0
v 0.1 8.3 -0.1
v 0.2 8.3 -0.1
v 3.3 8.3 -0.1
v 3.4 8.3 -0.1
v 0.1 8.3 -0.3
v 0.2 8.3 -0.3
v 3.3 8.3 -0.3
v 3.4 8.3 -0.3
v 0.1 8.3 -0.4
v 0.2 8.3 -0.4
v 2.3 8.3 -0.4
v 3.1 8.3 -0.4
v 3.3 8.3 -0.4
v 3.4 8.3 -0.4
v 2.3 8.3 -0.5
v 3.1 8.3 -0.5
v 0.2 8.4 0
v 3.3 8.4 0
v 0.2 8.4 -0.1
v 3.3 8.4 -0.1
v 0.2 8.4 -0.3
v 3.3 8.4 -0.3
v 0.2 8.4 -0.4
v 3.3 8.4 -0.4

# faces
f 3/5/1 2/5/1 1/5/1
f 4/5/1 2/5/1 3/5/1
f 7/5/1 6/5/1 5/5/1
f 8/5/1 6/5/1 7/5/1
f 11/5/1 10/5/1 9/5/1
f 12/5/1 10/5/1 11/5/1
f 17/3/1 15/3/1 14/3/1
f 18/5/1 16/5/1 15/5/1
f 18/3/1 15/3/1 17/3/1
f 19/3/1 17/3/1 14/3/1
f 20/5/1 16/5/1 18/5/1
f 21/3/1 19/3/1 14/3/1
f 21/3/1 20/3/1 19/3/1
f 22/5/1 16/5/1 20/5/1
f 22/3/1 20/3/1 21/3/1
f 23/3/1 21/3/1 14/3/1
f 24/5/1 16/5/1 22/5/1
f 25/5/1 14/5/1 13/5/1
f 25/3/1 24/3/1 23/3/1
f 25/3/1 23/3/1 14/3/1
f 26/3/1 24/3/1 25/3/1
f 27/5/1 16/5/1 24/5/1
f 27/3/1 24/3/1 26/3/1
f 28/5/1 25/5/1 13/5/1
f 30/5/1 16/5/1 27/5/1
f 31/5/1 28/5/1 13/5/1
f 32/3/1 29/3/1 28/3/1
f 32/5/1 28/5/1 31/5/1
f 32/3/1 30/3/1 29/3/1
f 33/5/1 16/5/1 30/5/1
f 33/3/1 30/3/1 32/3/1
f 34/5/1 16/5/1 33/5/1
f 39/5/1 36/5/1 35/5/1
f 40/3/1 37/3/1 36/3/1
f 40/5/1 36/5/1 39/5/1
f 41/5/1 38/5/1 37/5/1
f 41/3/1 37/3/1 40/3/1
f 42/5/1 38/5/1 41/5/1
f 45/3/1 44/3/1 43/3/1
f 46/3/1 44/3/1 45/3/1
f 51/5/1 48/5/1 47/5/1
f 52/3/1 49/3/1 48/3/1
f 52/5/1 48/5/1 51/5/1
f 53/5/1 50/5/1 49/5/1
f 53/3/1 49/3/1 52/3/1
f 54/5/1 50/5/1 53/5/1
f 57/1/1 56/1/1 55/1/1
f 58/1/1 56/1/1 57/1/1
f 61/1/1 60/1/1 59/1/1
f 62/1/1 60/1/1 61/1/1
f 65/1/1 64/1/1 63/1/1
f 66/1/1 64/1/1 65/1/1
f 67/1/2 68/1/2 69/1/2
f 69/1/2 68/1/2 70/1/2
f 71/1/2 72/1/2 73/1/2
f 73/1/2 72/1/2 74/1/2
f 75/1/2 76/1/2 77/1/2
f 77/1/2 76/1/2 78/1/2
f 79/5/2 80/5/2 83/5/2
f 80/3/2 81/3/2 84/3/2
f 83/5/2 80/5/2 84/5/2
f 81/5/2 82/5/2 85/5/2
f 84/3/2 81/3/2 85/3/2
f 85/5/2 82/5/2 86/5/2
f 87/5/2 88/5/2 91/5/2
f 88/3/2 89/3/2 92/3/2
f 91/5/2 88/5/2 92/5/2
f 89/5/2 90/5/2 93/5/2
f 92/3/2 89/3/2 93/3/2
f 93/5/2 90/5/2 94/5/2
f 96/3/2 97/3/2 99/3/2
f 97/5/2 98/5/2 100/5/2
f 99/3/2 97/3/2 100/3/2
f 96/3/2 99/3/2 101/3/2
f 100/5/2 98/5/2 102/5/2
f 95/5/2 96/5/2 103/5/2
f 101/3/2 102/3/2 104/3/2
f 103/5/2 96/5/2 104/5/2
f 96/3/2 101/3/2 104/3/2
f 102/5/2 98/5/2 105/5/2
f 104/3/2 102/3/2 105/3/2
f 105/5/2 98/5/2 106/5/2
f 107/5/2 108/5/2 109/5/2
f 109/5/2 108/5/2 110/5/2
f 114/5/3 112/5/3 111/5/3
f 115/5/3 112/5/3 114/5/3
f 117/5/3 114/5/3 113/5/3
f 117/5/3 116/5/3 115/5/3
f 117/5/3 115/5/3 114/5/3
f 118/5/3 116/5/3 117/5/3
f 119/5/3 116/5/3 118/5/3
f 120/5/3 116/5/3 119/5/3
f 121/5/3 119/5/3 118/5/3
f 121/6/3 120/6/3 119/6/3
f 122/5/3 116/5/3 120/5/3
f 122/6/3 120/6/3 121/6/3
f 123/5/3 121/5/3 118/5/3
f 123/5/3 122/5/3 121/5/3
f 124/5/3 116/5/3 122/5/3
f 124/5/3 122/5/3 123/5/3
f 125/5/3 117/5/3 113/5/3
f 126/5/3 117/5/3 125/5/3
f 127/5/3 125/5/3 113/5/3
f 128/3/3 126/3/3 125/3/3
f 128/5/3 125/5/3 127/5/3
f 129/5/3 117/5/3 126/5/3
f 129/3/3 126/3/3 128/3/3
f 130/5/3 117/5/3 129/5/3
f 131/5/3 116/5/3 124/5/3
f 132/5/3 116/5/3 131/5/3
f 133/5/3 131/5/3 124/5/3
f 133/6/3 132/6/3 131/6/3
f 134/5/3 116/5/3 132/5/3
f 134/6/3 132/6/3 133/6/3
f 135/3/3 128/3/3 127/3/3
f 135/5/3 127/5/3 113/5/3
f 136/5/3 129/5/3 128/5/3
f 136/3/3 128/3/3 135/3/3
f 137/3/3 130/3/3 129/3/3
f 137/5/3 129/5/3 136/5/3
f 138/5/3 117/5/3 130/5/3
f 138/3/3 130/3/3 137/3/3
f 139/3/3 137/3/3 136/3/3
f 139/5/3 136/5/3 135/5/3
f 140/5/3 138/5/3 137/5/3
f 140/3/3 137/3/3 139/3/3
f 141/5/3 123/5/3 118/5/3
f 141/6/3 124/6/3 123/6/3
f 142/5/3 134/5/3 133/5/3
f 142/6/3 124/6/3 141/6/3
f 142/5/3 133/5/3 124/5/3
f 143/5/3 117/5/3 138/5/3
f 143/2/3 118/2/3 117/2/3
f 143/5/3 138/5/3 140/5/3
f 143/5/3 140/5/3 139/5/3
f 144/5/3 142/5/3 141/5/3
f 144/2/3 118/2/3 143/2/3
f 144/5/3 141/5/3 118/5/3
f 145/5/3 143/5/3 139/5/3
f 145/5/3 139/5/3 135/5/3
f 145/5/3 144/5/3 143/5/3
f 145/5/3 135/5/3 113/5/3
f 146/5/3 144/5/3 145/5/3
f 147/5/3 134/5/3 142/5/3
f 147/5/3 144/5/3 146/5/3
f 147/5/3 142/5/3 144/5/3
f 147/5/3 116/5/3 134/5/3
f 148/5/3 116/5/3 147/5/3
f 149/5/3 147/5/3 146/5/3
f 150/5/3 147/5/3 149/5/3
f 153/5/3 152/5/3 151/5/3
f 154/5/3 152/5/3 153/5/3
f 159/5/3 156/5/3 155/5/3
f 160/5/3 156/5/3 159/5/3
f 161/5/3 158/5/3 157/5/3
f 162/5/3 158/5/3 161/5/3
f 165/5/3 164/5/3 163/5/3
f 166/5/3 164/5/3 165/5/3
f 169/5/3 168/5/3 167/5/3
f 170/5/3 168/5/3 169/5/3
f 171/5/4 172/5/4 173/5/4
f 173/5/4 172/5/4 174/5/4
f 173/3/4 174/3/4 175/3/4
f 175/3/4 174/3/4 176/3/4
f 177/5/4 178/5/4 181/5/4
f 181/5/4 178/5/4 182/5/4
f 179/5/4 180/5/4 183/5/4
f 183/5/4 180/5/4 184/5/4
f 185/5/4 186/5/4 187/5/4
f 187/5/4 186/5/4 188/5/4
f 189/5/4 190/5/4 192/5/4
f 192/5/4 190/5/4 193/5/4
f 191/5/4 192/5/4 195/5/4
f 193/5/4 194/5/4 195/5/4
f 192/5/4 193/5/4 195/5/4
f 195/5/4 194/5/4 196/5/4
f 191/5/4 195/5/4 197/5/4
f 195/4/4 196/4/4 198/4/4
f 197/5/4 195/5/4 198/5/4
f 196/5/4 194/5/4 199/5/4
f 199/5/4 194/5/4 200/5/4
f 191/5/4 197/5/4 201/5/4
f 197/4/4 198/4/4 202/4/4
f 201/5/4 197/5/4 202/5/4
f 196/5/4 199/5/4 203/5/4
f 199/4/4 200/4/4 204/4/4
f 203/5/4 199/5/4 204/5/4
f 200/5/4 194/5/4 205/5/4
f 204/4/4 200/4/4 205/4/4
f 205/5/4 194/5/4 206/5/4
f 206/5/4 194/5/4 207/5/4
f 207/5/4 194/5/4 208/5/4
f 191/5/4 201/5/4 209/5/4
f 201/4/4 202/4/4 210/4/4
f 209/5/4 201/5/4 210/5/4
f 198/4/4 196/4/4 211/4/4
f 210/4/4 202/4/4 211/4/4
f 202/4/4 198/4/4 211/4/4
f 196/5/4 203/5/4 211/5/4
f 203/4/4 204/4/4 212/4/4
f 211/5/4 203/5/4 212/5/4
f 204/4/4 205/4/4 212/4/4
f 205/4/4 206/4/4 212/4/4
f 206/5/4 207/5/4 213/5/4
f 212/4/4 206/4/4 213/4/4
f 213/5/4 207/5/4 214/5/4
f 214/5/4 207/5/4 215/5/4
f 207/4/4 208/4/4 216/4/4
f 215/5/4 207/5/4 216/5/4
f 215/4/4 216/4/4 217/4/4
f 216/4/4 208/4/4 217/4/4
f 208/5/4 194/5/4 218/5/4
f 217/4/4 208/4/4 218/4/4
f 209/4/4 210/4/4 219/4/4
f 210/4/4 211/4/4 219/4/4
f 211/4/4 212/4/4 219/4/4
f 213/4/4 214/4/4 219/4/4
f 212/4/4 213/4/4 219/4/4
f 191/5/4 209/5/4 219/5/4
f 219/4/4 214/4/4 220/4/4
f 220/4/4 214/4/4 221/4/4
f 214/5/4 215/5/4 222/5/4
f 221/4/4 214/4/4 222/4/4
f 215/4/4 217/4/4 223/4/4
f 222/5/4 215/5/4 223/5/4
f 223/4/4 217/4/4 224/4/4
f 217/5/4 218/5/4 225/5/4
f 224/4/4 217/4/4 225/4/4
f 191/5/4 219/5/4 226/5/4
f 219/5/4 220/5/4 226/5/4
f 220/4/4 221/4/4 227/4/4
f 226/5/4 220/5/4 227/5/4
f 221/5/4 222/5/4 228/5/4
f 227/4/4 221/4/4 228/4/4
f 223/4/4 224/4/4 229/4/4
f 228/5/4 222/5/4 229/5/4
f 222/4/4 223/4/4 229/4/4
f 224/5/4 225/5/4 230/5/4
f 229/4/4 224/4/4 230/4/4
f 218/5/4 194/5/4 231/5/4
f 230/5/4 225/5/4 231/5/4
f 225/5/4 218/5/4 231/5/4
f 231/5/4 194/5/4 232/5/4
f 229/5/4 230/5/4 233/5/4
f 230/5/4 231/5/4 233/5/4
f 231/4/4 232/4/4 233/4/4
f 232/5/4 194/5/4 234/5/4
f 233/4/4 232/4/4 234/4/4
f 227/4/4 228/4/4 235/4/4
f 226/4/4 227/4/4 235/4/4
f 191/5/4 226/5/4 235/5/4
f 228/4/4 229/4/4 235/4/4
f 235/4/4 229/4/4 236/4/4
f 236/4/4 229/4/4 237/4/4
f 229/5/4 233/5/4 238/5/4
f 237/4/4 229/4/4 238/4/4
f 233/5/4 234/5/4 238/5/4
f 236/4/4 237/4/4 239/4/4
f 235/5/4 236/5/4 239/5/4
f 239/4/4 237/4/4 240/4/4
f 240/4/4 237/4/4 241/4/4
f 237/5/4 238/5/4 242/5/4
f 241/4/4 237/4/4 242/4/4
f 238/5/4 234/5/4 243/5/4
f 242/5/4 238/5/4 243/5/4
f 234/5/4 194/5/4 244/5/4
f 243/5/4 234/5/4 244/5/4
f 240/4/4 241/4/4 245/4/4
f 239/5/4 240/5/4 245/5/4
f 245/4/4 241/4/4 246/4/4
f 246/4/4 241/4/4 247/4/4
f 241/5/4 242/5/4 248/5/4
f 247/4/4 241/4/4 248/4/4
f 242/5/4 243/5/4 248/5/4
f 248/5/4 243/5/4 249/5/4
f 249/5/4 243/5/4 250/5/4
f 244/5/4 194/5/4 251/5/4
f 251/5/4 194/5/4 252/5/4
f 246/4/4 247/4/4 253/4/4
f 245/5/4 246/5/4 253/5/4
f 248/5/4 249/5/4 254/5/4
f 253/4/4 247/4/4 254/4/4
f 247/5/4 248/5/4 254/5/4
f 253/5/4 254/5/4 255/5/4
f 254/5/4 249/5/4 255/5/4
f 252/5/4 194/5/4 258/5/4
f 255/5/4 256/5/4 259/5/4
f 257/5/4 258/5/4 260/5/4
f 255/5/4 259/5/4 261/5/4
f 259/5/4 260/5/4 261/5/4
f 245/5/4 253/5/4 261/5/4
f 191/5/4 235/5/4 261/5/4
f 235/5/4 239/5/4 261/5/4
f 239/5/4 245/5/4 261/5/4
f 253/5/4 255/5/4 261/5/4
f 261/5/4 260/5/4 262/5/4
f 260/5/4 258/5/4 263/5/4
f 262/5/4 260/5/4 263/5/4
f 258/5/4 194/5/4 263/5/4
f 263/5/4 194/5/4 264/5/4
f 262/5/4 263/5/4 265/5/4
f 265/5/4 263/5/4 266/5/4
f 267/1/4 268/1/4 270/1/4
f 270/1/4 268/1/4 271/1/4
f 269/1/4 270/1/4 273/1/4
f 271/1/4 272/1/4 273/1/4
f 270/1/4 271/1/4 273/1/4
f 273/1/4 272/1/4 274/1/4
f 274/1/4 272/1/4 275/1/4
f 275/1/4 272/1/4 276/1/4
f 274/1/4 275/1/4 277/1/4
f 277/1/4 275/1/4 278/1/4
f 281/5/5 280/5/5 279/5/5
f 282/5/5 280/5/5 281/5/5
f 283/3/5 282/3/5 281/3/5
f 284/3/5 282/3/5 283/3/5
f 285/5/5 284/5/5 283/5/5
f 286/5/5 284/5/5 285/5/5
f 291/5/5 288/5/5 287/5/5
f 292/5/5 288/5/5 291/5/5
f 293/5/5 290/5/5 289/5/5
f 294/5/5 290/5/5 293/5/5
f 295/3/5 292/3/5 291/3/5
f 296/3/5 292/3/5 295/3/5
f 297/3/5 294/3/5 293/3/5
f 298/3/5 294/3/5 297/3/5
f 299/5/5 296/5/5 295/5/5
f 300/5/5 296/5/5 299/5/5
f 301/5/5 298/5/5 297/5/5
f 302/5/5 298/5/5 301/5/5
f 305/5/5 304/5/5 303/5/5
f 306/5/5 304/5/5 305/5/5
f 309/5/5 308/5/5 307/5/5
f 310/5/5 308/5/5 309/5/5
f 313/5/5 312/5/5 311/5/5
f 314/5/5 312/5/5 313/5/5
f 317/5/5 316/5/5 315/5/5
f 318/5/5 316/5/5 317/5/5
f 321/3/5 320/3/5 319/3/5
f 322/3/5 320/3/5 321/3/5
f 325/1/5 324/1/5 323/1/5
f 326/1/5 324/1/5 325/1/5
f 331/1/5 328/1/5 327/1/5
f 332/1/5 328/1/5 331/1/5
f 333/1/5 330/1/5 329/1/5
f 334/1/5 330/1/5 333/1/5
f 335/5/6 336/5/6 337/5/6
f 337/5/6 336/5/6 338/5/6
f 339/5/6 340/5/6 341/5/6
f 341/5/6 340/5/6 342/5/6
f 343/3/6 344/3/6 345/3/6
f 345/3/6 344/3/6 346/3/6
f 347/5/6 348/5/6 349/5/6
f 349/5/6 348/5/6 350/5/6
f 351/5/6 352/5/6 353/5/6
f 353/5/6 352/5/6 354/5/6
f 355/1/6 356/1/6 359/1/6
f 359/1/6 356/1/6 360/1/6
f 357/1/6 358/1/6 361/1/6
f 361/1/6 358/1/6 362/1/6
f 363/5/6 364/5/6 367/5/6
f 367/5/6 364/5/6 368/5/6
f 365/5/6 366/5/6 369/5/6
f 369/5/6 366/5/6 370/5/6
f 367/3/6 368/3/6 371/3/6
f 371/3/6 368/3/6 372/3/6
f 369/3/6 370/3/6 373/3/6
f 373/3/6 370/3/6 374/3/6
f 371/5/6 372/5/6 375/5/6
f 375/5/6 372/5/6 376/5/6
f 373/5/6 374/5/6 379/5/6
f 379/5/6 374/5/6 380/5/6
f 377/1/6 378/1/6 381/1/6
f 381/1/6 378/1/6 382/1/6
f 383/5/6 384/5/6 385/5/6
f 385/5/6 384/5/6 386/5/6
f 385/3/6 386/3/6 387/3/6
f 387/3/6 386/3/6 388/3/6
f 387/5/6 388/5/6 389/5/6
f 389/5/6 388/5/6 390/5/6
